<?xml version="1.0" encoding="utf-8"?>
<!-- generated at drububu.com  -->
<!DOCTYPE svg PUBLIC "-//W3C//DTD SVG 1.1//EN" "http://www.w3.org/Graphics/SVG/1.1/DTD/svg11.dtd">
<svg version="1.1" preserveAspectRatio="xMinYMin meet" xmlns="http://www.w3.org/2000/svg" xmlns:xlink="http://www.w3.org/1999/xlink" x="0px" y="0px" width="114px" height="18px" viewBox="0 0 114 18">
<path d="M0 0h114v18h-114z" fill="rgb(0,0,128)"/>
<path d="M14 4h2v2h1v2h1v2h2v-2h1v-2h1v-2h2v10h-2v-4h-1v2h-1v2h-2v-2h-1v-2h-1v4
	h-2z" fill="rgb(255,255,255)"/>
<path d="M26 4h2v2h-2z" fill="rgb(255,255,255)"/>
<path d="M26 7h2v7h-2z" fill="rgb(255,255,255)"/>
<path d="M30 7h5v1h1v6h-2v-6h-2v6h-2z" fill="rgb(255,255,255)"/>
<path d="M39 7h4v1h1v2h-4v3h2v-1h2v1h-1v1h-4v-1h-1v-5h1z" fill="rgb(255,255,255)"/>
<path d="M47 7h4v1h1v1h-2v-1h-2v2h3v1h1v2h-1v1h-4v-1h-1v-1h2v1h2v-2h-3v-1h-1v-2
	h1z" fill="rgb(255,255,255)"/>
<path d="M53 7h2v2h1v2h1v-3h2v3h1v-2h1v-2h2v2h-1v3h-1v2h-2v-2h-2v2h-2v-2h-1v-3
	h-1z" fill="rgb(255,255,255)"/>
<path d="M65 7h4v1h1v2h-4v3h2v-1h2v1h-1v1h-4v-1h-1v-5h1z" fill="rgb(255,255,255)"/>
<path d="M73 7h4v1h1v2h-4v3h2v-1h2v1h-1v1h-4v-1h-1v-5h1z" fill="rgb(255,255,255)"/>
<path d="M80 7h5v1h1v5h-1v1h-3v3h-2z" fill="rgb(255,255,255)"/>
<path d="M89 7h4v1h1v2h-4v3h2v-1h2v1h-1v1h-4v-1h-1v-5h1z" fill="rgb(255,255,255)"/>
<path d="M96 7h4v1h-1v1h-1v5h-2z" fill="rgb(255,255,255)"/>
<path d="M40 8h2v1h-2z" fill="rgb(0,0,128)"/>
<path d="M66 8h2v1h-2z" fill="rgb(0,0,128)"/>
<path d="M74 8h2v1h-2z" fill="rgb(0,0,128)"/>
<path d="M82 8h2v5h-2z" fill="rgb(0,0,128)"/>
<path d="M90 8h2v1h-2z" fill="rgb(0,0,128)"/>
</svg>
