<?xml version="1.0" encoding="utf-8"?>
<!-- generated at drububu.com  -->
<!DOCTYPE svg PUBLIC "-//W3C//DTD SVG 1.1//EN" "http://www.w3.org/Graphics/SVG/1.1/DTD/svg11.dtd">
<svg version="1.1" preserveAspectRatio="xMinYMin meet" xmlns="http://www.w3.org/2000/svg" xmlns:xlink="http://www.w3.org/1999/xlink" x="0px" y="0px" width="13px" height="23px" viewBox="0 0 13 23">
<path d="M0 0h13v23h-13z" fill="rgb(0,0,0)"/>
<path d="M2 1h9v1h-1v1h-1v1h-5v-1h-1v-1h-1z" fill="rgb(255,0,0)"/>
<path d="M1 2h1v1h-1z" fill="rgb(123,0,0)"/>
<path d="M2 2h1v1h-1z" fill="rgb(0,0,0)"/>
<path d="M10 2h1v1h-1z" fill="rgb(0,0,0)"/>
<path d="M11 2h1v9h-1v-1h-1v-1h-1v-5h1v-1h1z" fill="rgb(255,0,0)"/>
<path d="M2 3h1v1h-1z" fill="rgb(123,0,0)"/>
<path d="M3 3h1v1h-1z" fill="rgb(0,0,0)"/>
<path d="M9 3h1v1h-1z" fill="rgb(0,0,0)"/>
<path d="M1 4h1v1h-1z" fill="rgb(123,0,0)"/>
<path d="M2 4h1v1h-1z" fill="rgb(0,0,0)"/>
<path d="M3 4h1v1h-1z" fill="rgb(123,0,0)"/>
<path d="M2 5h1v1h-1z" fill="rgb(123,0,0)"/>
<path d="M1 6h1v1h-1z" fill="rgb(123,0,0)"/>
<path d="M2 6h1v1h-1z" fill="rgb(0,0,0)"/>
<path d="M3 6h1v1h-1z" fill="rgb(123,0,0)"/>
<path d="M2 7h1v1h-1z" fill="rgb(123,0,0)"/>
<path d="M1 8h1v1h-1z" fill="rgb(123,0,0)"/>
<path d="M2 8h1v1h-1z" fill="rgb(0,0,0)"/>
<path d="M3 8h1v1h-1z" fill="rgb(123,0,0)"/>
<path d="M2 9h1v1h-1z" fill="rgb(123,0,0)"/>
<path d="M1 10h1v1h-1z" fill="rgb(123,0,0)"/>
<path d="M4 10h1v1h-1z" fill="rgb(123,0,0)"/>
<path d="M6 10h1v1h-1z" fill="rgb(123,0,0)"/>
<path d="M8 10h1v1h-1z" fill="rgb(123,0,0)"/>
<path d="M3 11h1v1h-1z" fill="rgb(123,0,0)"/>
<path d="M4 11h1v1h-1z" fill="rgb(0,0,0)"/>
<path d="M5 11h1v1h-1z" fill="rgb(123,0,0)"/>
<path d="M6 11h1v1h-1z" fill="rgb(0,0,0)"/>
<path d="M7 11h1v1h-1z" fill="rgb(123,0,0)"/>
<path d="M8 11h1v1h-1z" fill="rgb(0,0,0)"/>
<path d="M9 11h1v1h-1z" fill="rgb(123,0,0)"/>
<path d="M1 12h1v1h-1z" fill="rgb(123,0,0)"/>
<path d="M4 12h1v1h-1z" fill="rgb(123,0,0)"/>
<path d="M6 12h1v1h-1z" fill="rgb(123,0,0)"/>
<path d="M8 12h1v1h-1z" fill="rgb(123,0,0)"/>
<path d="M11 12h1v9h-1v-1h-1v-1h-1v-5h1v-1h1z" fill="rgb(255,0,0)"/>
<path d="M2 13h1v1h-1z" fill="rgb(123,0,0)"/>
<path d="M1 14h1v1h-1z" fill="rgb(123,0,0)"/>
<path d="M2 14h1v1h-1z" fill="rgb(0,0,0)"/>
<path d="M3 14h1v1h-1z" fill="rgb(123,0,0)"/>
<path d="M2 15h1v1h-1z" fill="rgb(123,0,0)"/>
<path d="M1 16h1v1h-1z" fill="rgb(123,0,0)"/>
<path d="M2 16h1v1h-1z" fill="rgb(0,0,0)"/>
<path d="M3 16h1v1h-1z" fill="rgb(123,0,0)"/>
<path d="M2 17h1v1h-1z" fill="rgb(123,0,0)"/>
<path d="M1 18h1v1h-1z" fill="rgb(123,0,0)"/>
<path d="M2 18h1v1h-1z" fill="rgb(0,0,0)"/>
<path d="M3 18h1v1h-1z" fill="rgb(123,0,0)"/>
<path d="M2 19h1v1h-1z" fill="rgb(123,0,0)"/>
<path d="M5 19h1v1h-1z" fill="rgb(123,0,0)"/>
<path d="M7 19h1v1h-1z" fill="rgb(123,0,0)"/>
<path d="M1 20h1v1h-1z" fill="rgb(123,0,0)"/>
<path d="M4 20h1v1h-1z" fill="rgb(123,0,0)"/>
<path d="M5 20h1v1h-1z" fill="rgb(0,0,0)"/>
<path d="M6 20h1v1h-1z" fill="rgb(123,0,0)"/>
<path d="M7 20h1v1h-1z" fill="rgb(0,0,0)"/>
<path d="M8 20h1v1h-1z" fill="rgb(123,0,0)"/>
<path d="M3 21h1v1h-1z" fill="rgb(123,0,0)"/>
<path d="M5 21h1v1h-1z" fill="rgb(123,0,0)"/>
<path d="M7 21h1v1h-1z" fill="rgb(123,0,0)"/>
<path d="M9 21h1v1h-1z" fill="rgb(123,0,0)"/>
</svg>
