<?xml version="1.0" encoding="utf-8"?>
<!-- generated at drububu.com  -->
<!DOCTYPE svg PUBLIC "-//W3C//DTD SVG 1.1//EN" "http://www.w3.org/Graphics/SVG/1.1/DTD/svg11.dtd">
<svg version="1.1" preserveAspectRatio="xMinYMin meet" xmlns="http://www.w3.org/2000/svg" xmlns:xlink="http://www.w3.org/1999/xlink" x="0px" y="0px" width="13px" height="23px" viewBox="0 0 13 23">
<path d="M0 0h13v23h-13z" fill="rgb(0,0,0)"/>
<path d="M2 1h9v1h-1v1h-1v1h-5v-1h-1v-1h-1z" fill="rgb(255,0,0)"/>
<path d="M1 2h1v1h1v1h1v5h-1v1h-1v1h-1z" fill="rgb(255,0,0)"/>
<path d="M2 2h1v1h-1z" fill="rgb(0,0,0)"/>
<path d="M10 2h1v1h-1z" fill="rgb(0,0,0)"/>
<path d="M11 2h1v9h-1v-1h-1v-1h-1v-5h1v-1h1z" fill="rgb(255,0,0)"/>
<path d="M3 3h1v1h-1z" fill="rgb(0,0,0)"/>
<path d="M9 3h1v1h-1z" fill="rgb(0,0,0)"/>
<path d="M4 4h5v5h1v1h-7v-1h1z" fill="rgb(0,0,0)"/>
<path d="M2 10h1v1h-1z" fill="rgb(0,0,0)"/>
<path d="M3 10h7v1h1v1h-1v1h-7v-1h-1v-1h1z" fill="rgb(255,0,0)"/>
<path d="M10 10h1v1h-1z" fill="rgb(0,0,0)"/>
<path d="M1 12h1v1h1v1h1v5h-1v1h-1v1h-1z" fill="rgb(255,0,0)"/>
<path d="M2 12h1v1h-1z" fill="rgb(0,0,0)"/>
<path d="M10 12h1v1h-1z" fill="rgb(0,0,0)"/>
<path d="M11 12h1v9h-1v-1h-1v-1h-1v-5h1v-1h1z" fill="rgb(255,0,0)"/>
<path d="M3 13h7v1h-1v5h-5v-5h-1z" fill="rgb(0,0,0)"/>
<path d="M3 19h1v1h-1z" fill="rgb(0,0,0)"/>
<path d="M4 19h5v1h1v1h1v1h-9v-1h1v-1h1z" fill="rgb(255,0,0)"/>
<path d="M9 19h1v1h-1z" fill="rgb(0,0,0)"/>
<path d="M2 20h1v1h-1z" fill="rgb(0,0,0)"/>
<path d="M10 20h1v1h-1z" fill="rgb(0,0,0)"/>
</svg>
