<?xml version="1.0" encoding="utf-8"?>
<!-- generated at drububu.com  -->
<!DOCTYPE svg PUBLIC "-//W3C//DTD SVG 1.1//EN" "http://www.w3.org/Graphics/SVG/1.1/DTD/svg11.dtd">
<svg version="1.1" preserveAspectRatio="xMinYMin meet" xmlns="http://www.w3.org/2000/svg" xmlns:xlink="http://www.w3.org/1999/xlink" x="0px" y="0px" width="26px" height="26px" viewBox="0 0 26 26">
<path d="M0 0h25v1h-24v24h-1z" fill="rgb(123,123,123)"/>
<path d="M25 0h1v1h-1z" fill="rgb(189,189,189)"/>
<path d="M1 1h23v1h-1v1h-20v20h-1v1h-1z" fill="rgb(255,255,255)"/>
<path d="M24 1h1v1h-1z" fill="rgb(189,189,189)"/>
<path d="M25 1h1v25h-25v-1h1v-1h1v-1h20v-20h1v-1h1z" fill="rgb(123,123,123)"/>
<path d="M23 2h1v1h-1z" fill="rgb(189,189,189)"/>
<path d="M3 3h20v20h-20z" fill="rgb(189,189,189)"/>
<path d="M11 5h5v1h-5z" fill="rgb(0,0,0)"/>
<path d="M9 6h2v1h-2z" fill="rgb(0,0,0)"/>
<path d="M11 6h5v1h2v1h1v1h1v2h1v2h-1v-1h-1v-1h-1v-1h-9v1h-1v1h-1v1h-1v-2h1v-2
	h1v-1h1v-1h2z" fill="rgb(255,255,0)"/>
<path d="M16 6h2v1h-2z" fill="rgb(0,0,0)"/>
<path d="M8 7h1v1h-1z" fill="rgb(0,0,0)"/>
<path d="M18 7h1v1h-1z" fill="rgb(0,0,0)"/>
<path d="M7 8h1v1h-1z" fill="rgb(0,0,0)"/>
<path d="M19 8h1v1h-1z" fill="rgb(0,0,0)"/>
<path d="M6 9h1v2h-1z" fill="rgb(0,0,0)"/>
<path d="M20 9h1v2h-1z" fill="rgb(0,0,0)"/>
<path d="M9 10h9v1h1v1h-1v1h-1v1h-2v-1h-1v-2h-1v2h-1v1h-2v-1h-1v-1h-1v-1h1z" fill="rgb(0,0,0)"/>
<path d="M5 11h1v2h1v1h-1v2h-1z" fill="rgb(0,0,0)"/>
<path d="M13 11h1v2h1v1h3v-2h1v1h1v1h1v2h-1v2h-1v1h-1v1h-2v1h-5v-1h-2v-1h-1v-1
	h-1v-2h-1v-2h1v-1h1v-1h1v2h3v-1h1z" fill="rgb(255,255,0)"/>
<path d="M21 11h1v5h-1v-2h-1v-1h1z" fill="rgb(0,0,0)"/>
<path d="M7 12h1v1h-1z" fill="rgb(0,0,0)"/>
<path d="M19 12h1v1h-1z" fill="rgb(0,0,0)"/>
<path d="M9 13h1v1h-1z" fill="rgb(123,123,0)"/>
<path d="M17 13h1v1h-1z" fill="rgb(123,123,0)"/>
<path d="M6 16h1v2h-1z" fill="rgb(0,0,0)"/>
<path d="M10 16h1v1h-1z" fill="rgb(0,0,0)"/>
<path d="M16 16h1v1h-1z" fill="rgb(0,0,0)"/>
<path d="M20 16h1v2h-1z" fill="rgb(0,0,0)"/>
<path d="M11 17h5v1h-5z" fill="rgb(0,0,0)"/>
<path d="M7 18h1v1h-1z" fill="rgb(0,0,0)"/>
<path d="M19 18h1v1h-1z" fill="rgb(0,0,0)"/>
<path d="M8 19h1v1h-1z" fill="rgb(0,0,0)"/>
<path d="M18 19h1v1h-1z" fill="rgb(0,0,0)"/>
<path d="M9 20h2v1h-2z" fill="rgb(0,0,0)"/>
<path d="M16 20h2v1h-2z" fill="rgb(0,0,0)"/>
<path d="M11 21h5v1h-5z" fill="rgb(0,0,0)"/>
<path d="M2 23h1v1h-1z" fill="rgb(189,189,189)"/>
<path d="M1 24h1v1h-1z" fill="rgb(189,189,189)"/>
<path d="M0 25h1v1h-1z" fill="rgb(189,189,189)"/>
</svg>
