<?xml version="1.0" encoding="utf-8"?>
<!-- generated at drububu.com  -->
<!DOCTYPE svg PUBLIC "-//W3C//DTD SVG 1.1//EN" "http://www.w3.org/Graphics/SVG/1.1/DTD/svg11.dtd">
<svg version="1.1" preserveAspectRatio="xMinYMin meet" xmlns="http://www.w3.org/2000/svg" xmlns:xlink="http://www.w3.org/1999/xlink" x="0px" y="0px" width="16px" height="16px" viewBox="0 0 16 16">
<path d="M0 0h16v1h-15v15h-1z" fill="rgb(123,123,123)"/>
<path d="M1 1h15v15h-15z" fill="rgb(255,0,0)"/>
<path d="M8 2h1v2h2v1h1v1h1v2h2v1h-2v2h-1v1h-1v1h-2v2h-1v-2h-2v-1h-1v-1h-1v-2
	h-2v-1h2v-2h1v-1h1v-1h2z" fill="rgb(0,0,0)"/>
<path d="M4 4h1v1h-1z" fill="rgb(0,0,0)"/>
<path d="M12 4h1v1h-1z" fill="rgb(0,0,0)"/>
<path d="M6 6h2v2h-2z" fill="rgb(255,255,255)"/>
<path d="M4 12h1v1h-1z" fill="rgb(0,0,0)"/>
<path d="M12 12h1v1h-1z" fill="rgb(0,0,0)"/>
</svg>
