<?xml version="1.0" encoding="utf-8"?>
<!-- generated at drububu.com  -->
<!DOCTYPE svg PUBLIC "-//W3C//DTD SVG 1.1//EN" "http://www.w3.org/Graphics/SVG/1.1/DTD/svg11.dtd">
<svg version="1.1" preserveAspectRatio="xMinYMin meet" xmlns="http://www.w3.org/2000/svg" xmlns:xlink="http://www.w3.org/1999/xlink" x="0px" y="0px" width="28px" height="28px" viewBox="0 0 28 28">
<path d="M13 0h2v1h1v2h2v1h-8v-1h2v-2h1v2h1v-2h-1z" fill="rgb(0,0,0)"/>
<path d="M13 1h1v2h-1z" fill="rgb(255,255,255)"/>
<path d="M4 4h2v1h-1v1h1v-1h2v1h-1v1h-1v1h-1v2h-1v-3h-1v-2h1z" fill="rgb(0,0,0)"/>
<path d="M8 4h2v1h-2z" fill="rgb(0,0,0)"/>
<path d="M10 4h5v2h-1v1h-1v-2h-1v1h-3v1h-1v1h1v1h-3v2h-1v1h-1v-2h1v-2h1v-1h1v-1
	h1v-1h2z" fill="rgb(255,255,255)"/>
<path d="M15 4h3v1h-2v2h1v-1h1v-1h2v2h1v3h-1v-1h-1v-2h-1v3h-1v-1h-2v1h-2v-1h-2
	v1h-1v1h-1v2h-1v-3h-1v1h-1v-2h3v-1h3v-1h2v-1h1z" fill="rgb(198,198,198)"/>
<path d="M18 4h2v1h-2z" fill="rgb(0,0,0)"/>
<path d="M22 4h2v1h1v2h-1v3h1v2h2v1h-2v1h2v-1h1v2h-1v1h-2v2h-1v2h-1v2h-1v1h1v-1
	h1v2h-1v1h-2v-1h-3v1h-2v2h-1v-2h-1v2h1v1h-2v-1h-1v-2h-2v-1h-3v1h-2v-1h-1v-2h1
	v1h1v-1h-1v-2h-1v-2h-1v-2h-2v-1h-1v-2h1v1h2v-1h-2v-1h2v-2h1v6h1v2h1v1h1v1h1v-1
	h2v1h-1v1h1v-1h1v-1h1v2h1v-2h1v1h2v-1h-1v-1h-2v-2h-1v-1h2v-1h1v-2h1v1h1v1h1v2h1
	v1h-1v1h-1v1h1v1h1v-1h-1v-1h1v-1h1v1h1v-1h-1v-2h1v1h1v-1h-1v-2h1v-3h-1v-3h-1
	v-2h2v1h1v-1h-1z" fill="rgb(0,0,0)"/>
<path d="M5 5h1v1h-1z" fill="rgb(255,255,255)"/>
<path d="M12 5h1v1h-1z" fill="rgb(198,198,198)"/>
<path d="M16 5h2v1h-2z" fill="rgb(255,255,255)"/>
<path d="M22 5h1v1h-1z" fill="rgb(255,255,255)"/>
<path d="M9 6h3v1h-3z" fill="rgb(198,198,198)"/>
<path d="M12 6h1v1h-1z" fill="rgb(132,132,132)"/>
<path d="M16 6h1v1h-1z" fill="rgb(132,132,132)"/>
<path d="M8 7h1v1h-1z" fill="rgb(198,198,198)"/>
<path d="M9 7h2v1h-2z" fill="rgb(255,255,255)"/>
<path d="M11 7h1v1h-1z" fill="rgb(132,132,132)"/>
<path d="M18 7h1v2h-1z" fill="rgb(132,132,132)"/>
<path d="M11 9h2v1h2v-1h2v1h1v1h1v-2h1v2h1v-1h1v3h-1v-1h-1v1h1v2h-1v-1h-1v-1h-1
	v1h-1v-1h-1v-1h-1v-1h-5v-1h1z" fill="rgb(132,132,132)"/>
<path d="M18 9h1v1h-1z" fill="rgb(0,0,0)"/>
<path d="M7 10h1v1h-1z" fill="rgb(132,132,132)"/>
<path d="M18 10h1v1h-1z" fill="rgb(255,255,255)"/>
<path d="M20 10h1v1h-1z" fill="rgb(0,0,0)"/>
<path d="M5 11h1v2h-2v-1h1z" fill="rgb(198,198,198)"/>
<path d="M6 11h2v1h-1v1h-1z" fill="rgb(255,255,255)"/>
<path d="M9 11h1v1h1v3h1v1h1v2h-1v-1h-1v1h-1v-1h-1v1h1v1h-2v-3h1v-2h-1v-1h1z" fill="rgb(132,132,132)"/>
<path d="M10 11h2v1h-2z" fill="rgb(198,198,198)"/>
<path d="M12 11h3v1h-3z" fill="rgb(0,0,0)"/>
<path d="M7 12h1v1h-1z" fill="rgb(132,132,132)"/>
<path d="M11 12h1v3h-1z" fill="rgb(0,0,0)"/>
<path d="M12 12h2v2h-2z" fill="rgb(255,255,255)"/>
<path d="M14 12h1v2h-1z" fill="rgb(132,132,132)"/>
<path d="M20 12h1v1h-1z" fill="rgb(0,0,0)"/>
<path d="M1 13h2v1h-2z" fill="rgb(255,255,255)"/>
<path d="M4 13h2v1h1v1h-1v1h-1v-2h-1z" fill="rgb(255,255,255)"/>
<path d="M6 13h1v1h-1z" fill="rgb(132,132,132)"/>
<path d="M7 13h1v1h1v2h-1v2h-2v-1h-1v-1h1v-1h1z" fill="rgb(198,198,198)"/>
<path d="M18 13h1v1h-1z" fill="rgb(0,0,0)"/>
<path d="M25 13h2v1h-2z" fill="rgb(132,132,132)"/>
<path d="M4 14h1v2h-1z" fill="rgb(198,198,198)"/>
<path d="M12 14h2v1h-2z" fill="rgb(132,132,132)"/>
<path d="M18 14h1v1h1v2h-1v-1h-1z" fill="rgb(132,132,132)"/>
<path d="M19 14h1v1h-1z" fill="rgb(0,0,0)"/>
<path d="M21 15h1v1h-1z" fill="rgb(132,132,132)"/>
<path d="M5 17h1v1h-1z" fill="rgb(132,132,132)"/>
<path d="M9 17h1v1h-1z" fill="rgb(0,0,0)"/>
<path d="M11 17h1v1h-1z" fill="rgb(0,0,0)"/>
<path d="M18 17h1v1h-1z" fill="rgb(132,132,132)"/>
<path d="M20 17h1v1h-1z" fill="rgb(132,132,132)"/>
<path d="M6 18h1v1h-1z" fill="rgb(132,132,132)"/>
<path d="M7 18h1v1h-1z" fill="rgb(0,0,0)"/>
<path d="M10 18h1v1h-1z" fill="rgb(0,0,0)"/>
<path d="M11 18h1v1h-1z" fill="rgb(132,132,132)"/>
<path d="M12 18h1v1h-1z" fill="rgb(0,0,0)"/>
<path d="M13 18h2v1h1v1h-2v-1h-1z" fill="rgb(132,132,132)"/>
<path d="M17 18h1v1h-1z" fill="rgb(132,132,132)"/>
<path d="M7 19h1v1h-1z" fill="rgb(132,132,132)"/>
<path d="M10 19h1v1h-1z" fill="rgb(132,132,132)"/>
<path d="M12 19h1v2h-1z" fill="rgb(132,132,132)"/>
<path d="M18 19h1v1h-1z" fill="rgb(132,132,132)"/>
<path d="M9 20h1v1h-1z" fill="rgb(132,132,132)"/>
<path d="M5 22h1v1h-1z" fill="rgb(132,132,132)"/>
<path d="M22 22h1v1h-1z" fill="rgb(132,132,132)"/>
<path d="M14 25h1v2h-1z" fill="rgb(132,132,132)"/>
</svg>
